<svg width="38" height="38" viewBox="0 0 38 38" fill="none" xmlns="http://www.w3.org/2000/svg">
<circle cx="18.9998" cy="18.9998" r="18.9998" fill="white"/>
<path fill-rule="evenodd" clip-rule="evenodd" d="M13 4H17V19H17.0009C17.0009 19.5932 17.1768 20.173 17.5064 20.6662C17.8359 21.1594 18.3043 21.5438 18.8523 21.7708C19.4003 21.9978 20.0033 22.0571 20.5851 21.9414C21.1668 21.8257 21.7012 21.5401 22.1207 21.1207C22.5401 20.7012 22.8257 20.1668 22.9414 19.5851C23.0572 19.0033 22.9978 18.4003 22.7708 17.8523C22.5438 17.3043 22.1594 16.8359 21.6662 16.5064C21.173 16.1768 20.5932 16.0009 20 16.0009V12C21.3845 12 22.7378 12.4105 23.889 13.1797C25.0401 13.9489 25.9373 15.0421 26.4672 16.3212C26.997 17.6003 27.1356 19.0078 26.8655 20.3656C26.5954 21.7235 25.9287 22.9708 24.9497 23.9497C23.9708 24.9287 22.7235 25.5954 21.3656 25.8655C20.0078 26.1356 18.6003 25.997 17.3212 25.4672C16.0421 24.9373 14.9489 24.0401 14.1797 22.889C13.4105 21.7378 13 20.3845 13 19V4ZM29.8995 28.8995C27.274 31.525 23.713 33 20 33V28.4612C22.5093 28.4612 24.9158 27.4644 26.6901 25.6901C28.4644 23.9158 29.4612 21.5093 29.4612 19C29.4612 16.4907 28.4644 14.0842 26.6901 12.3099C24.9158 10.5356 22.5093 9.53876 20 9.53876L20 5C23.713 5 27.274 6.475 29.8995 9.10051C32.525 11.726 34 15.287 34 19C34 22.713 32.525 26.274 29.8995 28.8995Z" fill="#D91E18"/>
</svg>
